<svg xmlns="http://www.w3.org/2000/svg" viewBox="0 0 32 32">
  <defs>
    <linearGradient id="o" x1="16" y1="2" x2="16" y2="31" gradientUnits="userSpaceOnUse">
      <stop stop-color="#FF7A1A" /><stop offset="1" stop-color="#F53803" />
    </linearGradient>
    <linearGradient id="i" x1="16" y1="13" x2="16" y2="30" gradientUnits="userSpaceOnUse">
      <stop stop-color="#FFE45C" /><stop offset="1" stop-color="#FFC22E" />
    </linearGradient>
  </defs>
  <path d="M18 2.5c1 5 6.5 7.2 6.5 13.7a8.5 8.5 0 0 1-17 0c0-3.7 1.8-6.4 3.9-8.4-.4 3.4 1 5.3 2.6 5.9 2-3.3-1.2-8 4-11.2z" fill="url(#o)" />
  <path d="M16 15.5c.9 2.7 4 3.7 4 7a4.3 4.3 0 0 1-8.6 0c0-1.9 1-3.4 2.3-4.4-.1 1.6.9 2.4 1.6 2.6 1-1.6-.3-3.4.7-5.2z" fill="url(#i)" />
</svg>
